# xmcd
#
# Track frame offsets:
#	150
#	20652
#	38005
#	49717
#	64237
#	78860
#	91960
#	104487
#	122362
#	140365
#	151165
#	169005
#	180815
#	196417
#	208925
#	221517
#	236875
#	250302
#	266357
#	280800
#	293672
#	311307
#
# Disc length: 4322 seconds
# Revision: 2
# Processed by: cddbd v1.5.2PL0 Copyright (c) Steve Scherf et al.
# Submitted via: dBpowerAMP V12.0
#
DISCID=2d10e016
DTITLE=Various Artist - Mirrors Of Life, Vol. 1
DYEAR=2000
DGENRE=Country
TTITLE0=Garth Brooks - Ain't Going Down ('Til The Sun Comes Up)
TTITLE1=Reba McEntire - The Heart Is A Lonely Hunter
TTITLE2=George Strait - Overnight Male
TTITLE3=George Jones - She Loved A Lot In Her Time
TTITLE4=Brooks and Dunn - Honky Tonk Truth
TTITLE5=Crystal Gayle - The Trouble With Me Is You
TTITLE6=Clay Walker - Who Needs You Baby
TTITLE7=Gary Allan - Don't Tell Mama
TTITLE8=Conway Twitty - I'm The Only Thing I'll Hold Against You
TTITLE9=Garth Brooks - It's Midnight Cinderella
TTITLE10=Charlie Daniels - Guilty
TTITLE11=Kenny Chesney - Fall In Love
TTITLE12=Hank Williams, Jr. - Both Sides Of Goodbye
TTITLE13=Joe Diffie - If The Devil Danced In Empty Pockets
TTITLE14=Sammy Kershaw - Haunted Heart
TTITLE15=Aaron Tippin - My Blue Angel
TTITLE16=Doug Stone - Warning Labels
TTITLE17=B. B. Watson - Light At The End Of The Tunnel
TTITLE18=Doug Supernaw - Not Enough Hours In The Night
TTITLE19=Brooks and Dunn - Redneck Rhythm And Blues
TTITLE20=Garth Brooks - New Way To Fly
TTITLE21=Alan Jackson - Honky Tonk Christmas
EXTD=
EXTT0=
EXTT1=
EXTT2=
EXTT3=
EXTT4=
EXTT5=
EXTT6=
EXTT7=
EXTT8=
EXTT9=
EXTT10=
EXTT11=
EXTT12=
EXTT13=
EXTT14=
EXTT15=
EXTT16=
EXTT17=
EXTT18=
EXTT19=
EXTT20=
EXTT21=
PLAYORDER=
